<svg width="281" height="135" viewBox="0 0 281 135" fill="none" xmlns="http://www.w3.org/2000/svg">
<g filter="url(#filter0_d_52_51)">
<rect x="38.3934" y="8.60803" width="203.112" height="55.1513" rx="26.0794" fill="url(#paint0_linear_52_51)"/>
<rect x="34.187" y="4.40168" width="211.525" height="63.564" rx="30.2857" stroke="white" stroke-opacity="0.15" stroke-width="8.4127"/>
<rect x="31.023" y="1.02304" width="218.837" height="71.3378" rx="33.7865" stroke="white" stroke-opacity="0.46" stroke-width="1.95392"/>
<path d="M72.9428 29.4929L72.9647 29.1648H75.9613L84.4699 43.8635L84.3606 29.9304C84.3022 29.7846 84.222 29.7044 84.12 29.6898L82.1076 29.5148C82.0931 29.4273 82.0858 29.3179 82.0858 29.1867L86.2416 29.1648C86.2416 29.1794 86.2489 29.2888 86.2635 29.4929L84.8636 29.646V44.476H83.2669L74.7583 29.7773L74.8677 44.0166L77.3612 44.1479C77.3612 44.1624 77.3539 44.2718 77.3393 44.476L72.9428 44.4978L72.9647 44.1916L74.1021 44.0385C74.2479 44.0239 74.3354 43.9291 74.3646 43.7541V29.9085C74.3354 29.7335 74.2479 29.6388 74.1021 29.6242L72.9428 29.4929ZM88.7828 39.4452C88.7828 42.5949 90.0077 44.1697 92.4575 44.1697C93.0991 44.1697 93.7845 44.1041 94.5136 43.9729C95.2427 43.8271 95.7093 43.6958 95.9134 43.5792L96.0666 43.7979C95.7312 44.0166 95.1771 44.1989 94.4042 44.3447C93.6459 44.4905 92.946 44.5634 92.3044 44.5634C91.6774 44.5634 91.1087 44.4978 90.5983 44.3666C90.1025 44.2353 89.5921 44.002 89.0672 43.6667C88.5422 43.3313 88.1266 42.8063 87.8204 42.0918C87.5142 41.3773 87.3611 40.5024 87.3611 39.467C87.3611 37.5422 87.8569 36.0694 88.8485 35.0487C89.8838 33.9842 91.0868 33.452 92.4575 33.452C93.8282 33.452 94.8708 33.8311 95.5853 34.5893C96.3144 35.3476 96.679 36.4121 96.679 37.7828C96.679 38.0744 96.6571 38.388 96.6134 38.7233H88.8047C88.7901 38.8838 88.7828 39.1244 88.7828 39.4452ZM95.3885 37.6297C95.3885 36.536 95.1479 35.6465 94.6667 34.9612C94.1855 34.2613 93.5293 33.9113 92.6981 33.9113C91.619 33.9113 90.7077 34.3852 89.964 35.333C89.3661 36.0767 88.9943 37.0683 88.8485 38.3078H95.3666C95.3812 38.1474 95.3885 37.9213 95.3885 37.6297ZM116.702 33.5394C116.702 33.554 116.709 33.6634 116.723 33.8675L115.455 33.9988L114.667 34.1738L110.752 44.476H109.44L106.881 35.8142L103.928 44.476H102.615L99.2031 34.2613C99.1156 34.1009 99.0063 34.0134 98.875 33.9988L97.7376 33.8894C97.723 33.8019 97.7157 33.6926 97.7157 33.5613L102.309 33.5394C102.309 33.554 102.316 33.6634 102.331 33.8675L100.756 33.9769L103.709 43.776L106.902 33.6488L107.646 33.5394L110.424 44.126L113.858 34.3269C113.902 34.2394 113.88 34.1665 113.792 34.1081C113.705 34.0498 113.603 34.0134 113.486 33.9988L112.349 33.8894C112.334 33.8019 112.327 33.6926 112.327 33.5613L116.702 33.5394ZM124.624 49.9442L124.646 49.638L125.783 49.4849C125.914 49.4703 125.98 49.3682 125.98 49.1787V34.2613C125.951 34.1446 125.907 34.0863 125.849 34.0863L124.514 34.0425L124.536 33.7363C125.455 33.6051 126.082 33.5394 126.417 33.5394C126.753 33.5394 126.993 33.6269 127.139 33.8019C127.285 33.9623 127.373 34.1446 127.402 34.3487C128.32 33.678 129.297 33.3426 130.333 33.3426C131.324 33.3426 132.258 33.6488 133.132 34.2613C133.599 34.5966 133.971 35.1216 134.248 35.8361C134.54 36.5506 134.685 37.4183 134.685 38.439C134.685 40.3784 134.204 41.8366 133.242 42.8136C132.148 43.9218 130.734 44.476 128.998 44.476C128.488 44.476 127.956 44.4395 127.402 44.3666V49.4849L129.261 49.5942C129.246 49.7984 129.239 49.9078 129.239 49.9223L124.624 49.9442ZM127.402 34.7862V43.9073C127.825 44.0093 128.284 44.0604 128.78 44.0604C130.209 44.0604 131.31 43.5792 132.083 42.6167C132.87 41.6398 133.264 40.2836 133.264 38.5484C133.264 36.5652 132.87 35.231 132.083 34.5456C131.47 34.0061 130.785 33.7363 130.026 33.7363C129.268 33.7363 128.393 34.0863 127.402 34.7862ZM138.973 34.4362V36.1861C140.125 34.4946 141.255 33.6342 142.364 33.6051C142.451 33.6051 142.539 33.6051 142.626 33.6051L143.851 33.7582L143.282 35.0706C143.005 34.7935 142.648 34.655 142.211 34.655C141.146 34.6695 140.067 35.3768 138.973 36.7766V44.0385L140.833 44.1479C140.833 44.1624 140.825 44.2718 140.811 44.476L136.217 44.4978C136.217 44.3666 136.225 44.2645 136.239 44.1916L137.377 44.0385C137.493 44.0239 137.552 43.9218 137.552 43.7323V34.2394C137.522 34.1373 137.479 34.0863 137.42 34.0863L136.108 34.0425L136.13 33.7363C136.917 33.6051 137.515 33.5394 137.923 33.5394C138.332 33.5394 138.609 33.6342 138.755 33.8238C138.9 34.0134 138.973 34.2175 138.973 34.4362ZM149.511 44.5634C147.995 44.5634 146.762 44.126 145.815 43.2511C144.881 42.3761 144.415 41.0419 144.415 39.2483C144.415 37.4401 144.91 36.0257 145.902 35.0049C146.908 33.9696 148.17 33.452 149.686 33.452C151.203 33.452 152.435 33.8894 153.383 34.7643C154.33 35.6393 154.804 36.9808 154.804 38.789C154.804 40.5826 154.301 41.997 153.295 43.0323C152.304 44.0531 151.042 44.5634 149.511 44.5634ZM149.664 33.8457C148.571 33.8457 147.659 34.3196 146.93 35.2674C146.201 36.2152 145.836 37.5058 145.836 39.1389C145.836 40.7575 146.179 42.0043 146.864 42.8792C147.564 43.7396 148.461 44.1697 149.555 44.1697C150.648 44.1697 151.56 43.6958 152.289 42.748C153.018 41.8002 153.383 40.5169 153.383 38.8983C153.383 37.2797 153.033 36.033 152.333 35.158C151.647 34.2831 150.758 33.8457 149.664 33.8457ZM165.706 28.968V43.3386C165.706 43.7906 165.823 44.0166 166.056 44.0166L167.369 44.0822L167.347 44.4103C166.647 44.527 165.918 44.5853 165.16 44.5853C164.999 44.5707 164.824 44.4905 164.635 44.3447C164.46 44.1989 164.358 44.0093 164.328 43.776C163.497 44.301 162.535 44.5634 161.441 44.5634C160.377 44.5634 159.392 44.2645 158.488 43.6667C157.978 43.3313 157.562 42.8063 157.242 42.0918C156.935 41.3627 156.782 40.4805 156.782 39.4452C156.782 37.5349 157.271 36.0767 158.248 35.0706C159.283 33.9915 160.464 33.452 161.791 33.452C162.608 33.452 163.439 33.6634 164.285 34.0863V28.8586C164.285 28.6982 164.241 28.618 164.153 28.618L162.819 28.5743L162.841 28.268C163.76 28.1368 164.387 28.0712 164.722 28.0712C165.072 28.0712 165.32 28.166 165.466 28.3555C165.626 28.5451 165.706 28.7493 165.706 28.968ZM161.726 44.1697C162.615 44.1697 163.468 43.9729 164.285 43.5792V34.4362C163.643 34.0425 163.009 33.8457 162.382 33.8457C161.128 33.8457 160.114 34.3269 159.341 35.2893C158.583 36.2517 158.204 37.6297 158.204 39.4233C158.204 42.5876 159.378 44.1697 161.726 44.1697ZM168.496 33.8894L168.474 33.5613L171.427 33.5394V41.1513C171.427 41.72 171.507 42.2157 171.668 42.6386C171.828 43.0469 172.003 43.3458 172.193 43.5354C172.397 43.725 172.63 43.8708 172.892 43.9729C173.301 44.1187 173.643 44.177 173.92 44.1479C174.81 44.1333 175.823 43.6739 176.961 42.7699V34.305C176.903 34.13 176.779 34.0279 176.589 33.9988L175.452 33.8894C175.437 33.8019 175.43 33.6926 175.43 33.5613L178.383 33.5394V43.4698C178.412 43.8343 178.528 44.0166 178.733 44.0166L180.045 44.0822L180.023 44.4103C179.323 44.527 178.594 44.5853 177.836 44.5853C177.661 44.5707 177.471 44.476 177.267 44.301C177.063 44.1114 176.961 43.8781 176.961 43.601V43.2073C175.634 44.0968 174.38 44.5416 173.199 44.5416C172.703 44.5416 172.12 44.4176 171.449 44.1697C171.011 44.0093 170.661 43.7104 170.399 43.2729C170.136 42.8209 170.005 42.2595 170.005 41.5887V34.3269C170.005 34.254 169.961 34.1883 169.874 34.13C169.801 34.0571 169.721 34.0134 169.633 33.9988L168.496 33.8894ZM187.928 33.8457C186.689 33.8457 185.683 34.3342 184.91 35.3112C184.152 36.2736 183.772 37.6443 183.772 39.4233C183.772 42.5876 184.975 44.1697 187.381 44.1697C188.329 44.1697 189.139 44.0822 189.809 43.9073C190.48 43.7177 190.845 43.601 190.903 43.5573L191.056 43.7979C190.721 44.0166 190.167 44.1989 189.394 44.3447C188.621 44.4905 187.921 44.5634 187.294 44.5634C186.667 44.5634 186.098 44.4978 185.588 44.3666C185.077 44.2353 184.56 44.002 184.035 43.6667C183.525 43.3313 183.116 42.8063 182.81 42.0918C182.504 41.3627 182.351 40.4805 182.351 39.4452C182.351 37.5349 182.839 36.0913 183.816 35.1143C184.91 33.9915 186.288 33.4301 187.95 33.4301C188.475 33.4301 189.029 33.503 189.612 33.6488C190.21 33.78 190.67 33.9915 190.99 34.2831V37.1485L190.575 37.3016L190.466 35.0049C190.145 34.6695 189.751 34.3925 189.284 34.1738C188.832 33.955 188.38 33.8457 187.928 33.8457ZM197.567 44.0604L198.42 44.0166L198.485 44.2353C198.471 44.2353 198.369 44.2572 198.179 44.301C197.742 44.403 197.253 44.4541 196.714 44.4541C196.218 44.4249 195.766 44.3447 195.358 44.2135C194.949 44.0677 194.57 43.776 194.22 43.3386C193.87 42.8865 193.695 42.3105 193.695 41.6106V33.9332H192.58L192.755 33.7582L193.717 33.5613L193.892 31.4615L195.117 31.3521V33.5394H197.764V33.9332H195.117V41.2387C195.117 42.347 195.35 43.098 195.817 43.4917C196.284 43.8708 196.867 44.0604 197.567 44.0604Z" fill="#024127"/>
</g>
<defs>
<filter id="filter0_d_52_51" x="0.295845" y="0.0461426" width="280.225" height="134.224" filterUnits="userSpaceOnUse" color-interpolation-filters="sRGB">
<feFlood flood-opacity="0" result="BackgroundImageFix"/>
<feColorMatrix in="SourceAlpha" type="matrix" values="0 0 0 0 0 0 0 0 0 0 0 0 0 0 0 0 0 0 127 0" result="hardAlpha"/>
<feOffset dy="31.2472"/>
<feGaussianBlur stdDeviation="14.8424"/>
<feComposite in2="hardAlpha" operator="out"/>
<feColorMatrix type="matrix" values="0 0 0 0 0.882353 0 0 0 0 0.529412 0 0 0 0 0.164706 0 0 0 0.66 0"/>
<feBlend mode="normal" in2="BackgroundImageFix" result="effect1_dropShadow_52_51"/>
<feBlend mode="normal" in="SourceGraphic" in2="effect1_dropShadow_52_51" result="shape"/>
</filter>
<linearGradient id="paint0_linear_52_51" x1="145.54" y1="-8.29317" x2="118.125" y2="78.7477" gradientUnits="userSpaceOnUse">
<stop stop-color="#E3872D"/>
<stop offset="1" stop-color="#F8B627"/>
</linearGradient>
</defs>
</svg>
